<svg width="44" height="44" viewBox="0 0 44 44" fill="none" xmlns="http://www.w3.org/2000/svg">
<path d="M34.5449 5.4541H9.09131C7.08307 5.4541 5.45508 7.0821 5.45508 9.09033V34.5439C5.45508 36.5522 7.08307 38.1802 9.09131 38.1802H34.5449C36.5532 38.1802 38.1812 36.5522 38.1812 34.5439V9.09033C38.1812 7.0821 36.5532 5.4541 34.5449 5.4541Z" stroke="#585858" stroke-width="2" stroke-linecap="round" stroke-linejoin="round"/>
<path d="M15.4537 18.1809C16.9599 18.1809 18.1809 16.9599 18.1809 15.4537C18.1809 13.9476 16.9599 12.7266 15.4537 12.7266C13.9476 12.7266 12.7266 13.9476 12.7266 15.4537C12.7266 16.9599 13.9476 18.1809 15.4537 18.1809Z" stroke="#585858" stroke-width="2" stroke-linecap="round" stroke-linejoin="round"/>
<path d="M38.1797 27.2722L29.0891 18.1816L9.08984 38.1809" stroke="#585858" stroke-width="2" stroke-linecap="round" stroke-linejoin="round"/>
</svg>
